PathFileType	4	(X/Y/Z)	Walk9.trc
DataRate	CameraRate	NumFrames	NumMarkers	Units	OrigDataRate	OrigDataStartFrame	OrigNumFrames
200.000000	200.000000	9	59	mm	200.000000	267	603
Frame#	Times		LFHD		RFHD		RASI		RACR1		RUA1		RFA1		RWRR		RCAR		LACR1		LUA1		LElbow		LWRU		RTH2		RMT5		LTH3		LLFC		LTB1		LMT1		LTB4		LMT5		RLFC		LTB2		CLAV		LTB3		LToe		STRN		LFA1		LTH2		LTH4		LLMAL		RBHD		RTH3		LASI		LTH1		RMT1		RBack		RElbowM		C7		LPSI		LCAR		LBHD		RToe		RPSI		RCAL		RElbow		RTH4		RLMAL		RTH1		RTB2		RTB3		RTB4		LWRR		RTB1		RMMAL		LMMAL		T10		RWRU		LCAL		LElbowM
			X1	Y1	Z1	X2	Y2	Z2	X3	Y3	Z3	X4	Y4	Z4	X5	Y5	Z5	X6	Y6	Z6	X7	Y7	Z7	X8	Y8	Z8	X9	Y9	Z9	X10	Y10	Z10	X11	Y11	Z11	X12	Y12	Z12	X13	Y13	Z13	X14	Y14	Z14	X15	Y15	Z15	X16	Y16	Z16	X17	Y17	Z17	X18	Y18	Z18	X19	Y19	Z19	X20	Y20	Z20	X21	Y21	Z21	X22	Y22	Z22	X23	Y23	Z23	X24	Y24	Z24	X25	Y25	Z25	X26	Y26	Z26	X27	Y27	Z27	X28	Y28	Z28	X29	Y29	Z29	X30	Y30	Z30	X31	Y31	Z31	X32	Y32	Z32	X33	Y33	Z33	X34	Y34	Z34	X35	Y35	Z35	X36	Y36	Z36	X37	Y37	Z37	X38	Y38	Z38	X39	Y39	Z39	X40	Y40	Z40	X41	Y41	Z41	X42	Y42	Z42	X43	Y43	Z43	X44	Y44	Z44	X45	Y45	Z45	X46	Y46	Z46	X47	Y47	Z47	X48	Y48	Z48	X49	Y49	Z49	X50	Y50	Z50	X51	Y51	Z51	X52	Y52	Z52	X53	Y53	Z53	X54	Y54	Z54	X55	Y55	Z55	X56	Y56	Z56	X57	Y57	Z57	X58	Y58	Z58	X59	Y59	Z59

267	1.335	-398.37	1559	8.0396	-387.46	1559.6	105.93	-455.39	929.12	226.75	-512.06	1350.7	238.98	-528.09	1206.3	326.98	-477.79	924.02	368.3	-475.53	820.52	400.59	-437.09	768.33	374.88	-516.86	1350.8	-119.92	-560.89	1210.4	-199.47	-646.99	1082.8	-230.95	-686.59	847.76	-306.02	-527.43	604.02	218.12	-671.78	25.768	191.26	-433.68	550.31	-150.16	-421.3	484.08	-128.62	-343.37	348.06	-33.733	-190.93	78.773	-43.543	-331.54	263.78	-44.156	-210.13	56.172	-123.87	-627.91	443.49	205.18	-338.83	269.36	-105.4	-442.09	1318.3	60.746	-312.08	180.59	-52.311	-156.35	93.153	-47.678	-383.68	1197.9	71.392	-629.81	953.7	-274.89	-411.08	653.86	-154.19	-461.51	629.69	-178.09	-332.56	75.835	-114.21	-556.81	1550	131.86	-605.18	534.35	219.45	-445.65	947.4	-128.57	-486.76	707.36	-202.12	-659.87	35.02	99.441	-655.13	1292.3	167.29	-608.23	1026.3	296.52	-602.05	1398.7	75.473	-684.83	972.54	-59.559	-660.95	793.49	-314.43	-551.4	1537.8	-3.6094	-612.24	29.785	108.84	-701.06	970.74	74.151	-846.63	43.986	141.62	-557.09	1044.9	371.35	-494.44	660.15	196.61	-786.28	75.142	183.39	-548.46	691.94	254.29	-671.16	258.24	188.04	-700.64	172.42	130.16	-664.19	249.44	127.02	-629.65	830.81	-261.24	-616.5	321.44	123.45	-768.56	80.481	97.498	-318.37	83.624	-30.746	-666.51	1071.5	37.455	-455.59	821.5	328.54	-371.41	22.37	-68.071	-645.26	1040.4	-130.42
268	1.34	-393.73	1558.5	6.4127	-382.91	1559.1	104.31	-450.43	928.46	225.8	-507.57	1350.5	237.26	-523.83	1206.3	325.52	-473.94	923.92	367.26	-471.81	820.47	399.69	-433.38	768.23	374.1	-511.9	1349.7	-121.67	-556.09	1209.2	-200.87	-642.48	1081.7	-232.01	-683.22	846.71	-306.47	-523.09	603.51	217.69	-671.76	25.705	191.31	-425.43	550.58	-149.17	-414.26	483.9	-128.01	-338.82	346.85	-32.718	-188.85	75.772	-41.208	-327.69	262.48	-42.997	-207.67	53.726	-121.83	-623.98	443.16	205.02	-334.54	268.07	-104.31	-437.3	1317.7	59.109	-308.94	179.12	-50.89	-153.83	89.4	-44.877	-378.84	1197.2	69.962	-625.9	952.46	-275.71	-404.18	654.4	-153.67	-454.19	629.47	-177.68	-330.02	74.799	-112.99	-552.29	1549.4	130.14	-600.91	533.9	219.16	-440.25	946.46	-129.25	-480.42	706.64	-202.19	-659.77	35.138	99.578	-650.54	1291.9	165.48	-604.16	1026.3	295.27	-597.43	1398.2	73.519	-679.69	971.8	-60.835	-657.89	792.27	-314.77	-546.75	1537.3	-5.3629	-612.15	29.71	108.9	-696.05	970.17	72.921	-846.34	45.656	141.82	-553.1	1044.9	370.09	-489.35	659.75	197.92	-785.72	76.205	183.64	-543.83	691.49	253.71	-668.95	258.33	188.12	-699.18	172.7	130.37	-662.01	249.4	127.09	-626.32	829.56	-261.72	-613.65	320.96	123.43	-767.97	81.475	97.725	-316.28	82.174	-29.352	-661.58	1070.9	36.203	-451.83	821.32	327.66	-369.86	22.23	-67.321	-640.63	1039.5	-131.38
269	1.345	-389.08	1558.1	4.7564	-378.36	1558.6	102.66	-445.43	927.81	224.85	-503.06	1350.2	235.52	-519.62	1206.2	324	-470.16	923.83	366.2	-468.18	820.44	398.76	-429.77	768.14	373.29	-506.92	1348.7	-123.46	-551.24	1208	-202.3	-637.92	1080.6	-233.11	-679.75	845.63	-306.94	-518.68	603.03	217.25	-671.75	25.635	191.35	-417.12	550.91	-148.07	-407.34	483.75	-127.4	-334.37	345.66	-31.728	-186.98	72.635	-38.967	-323.97	261.2	-41.886	-205.47	51.226	-119.92	-619.95	442.84	204.86	-330.36	266.82	-103.26	-432.5	1317.1	57.423	-305.95	177.67	-49.539	-151.5	85.426	-42.162	-373.98	1196.6	68.478	-621.92	951.2	-276.56	-397.12	654.96	-153.07	-446.73	629.32	-177.21	-327.69	73.821	-111.87	-547.76	1548.9	128.38	-596.54	533.47	218.87	-434.86	945.56	-129.98	-473.87	706.03	-202.18	-659.65	35.263	99.728	-645.94	1291.4	163.63	-600.13	1026.2	293.96	-592.78	1397.6	71.516	-674.52	971.08	-62.133	-654.7	791.04	-315.13	-542.1	1536.9	-7.1535	-612.07	29.637	108.96	-691.03	969.61	71.673	-846.01	47.458	142.02	-549.18	1044.9	368.79	-484.67	659.13	199.5	-785.11	77.354	183.91	-539.12	691.06	253.14	-666.66	258.48	188.22	-697.65	173.03	130.61	-659.73	249.4	127.18	-622.9	828.29	-262.22	-610.7	320.51	123.44	-767.31	82.549	97.975	-314.4	80.736	-28.047	-656.64	1070.2	34.946	-448.15	821.15	326.75	-368.56	22.215	-66.675	-635.96	1038.6	-132.38
270	1.35	-384.43	1557.8	3.0722	-373.81	1558.2	100.98	-440.38	927.2	223.89	-498.54	1350	233.74	-515.44	1206.2	322.43	-466.45	923.77	365.12	-464.64	820.43	397.8	-426.26	768.08	372.45	-501.92	1347.6	-125.29	-546.36	1206.8	-203.76	-633.3	1079.5	-234.24	-676.16	844.54	-307.42	-514.17	602.6	216.82	-671.74	25.555	191.4	-408.83	551.29	-146.88	-400.56	483.65	-126.82	-330.02	344.51	-30.77	-185.29	69.41	-36.843	-320.35	259.97	-40.833	-203.48	48.714	-118.18	-615.82	442.56	204.71	-326.27	265.62	-102.26	-427.68	1316.6	55.693	-303.08	176.27	-48.275	-149.35	81.287	-39.565	-369.11	1196.1	66.942	-617.86	949.94	-277.43	-389.95	655.53	-152.42	-439.16	629.25	-176.7	-325.53	72.924	-110.84	-543.24	1548.4	126.58	-592.08	533.07	218.57	-429.49	944.71	-130.76	-467.11	705.54	-202.11	-659.52	35.396	99.892	-641.35	1291.1	161.75	-596.14	1026.2	292.6	-588.11	1397.2	69.468	-669.34	970.39	-63.452	-651.4	789.79	-315.49	-537.43	1536.4	-8.9794	-611.98	29.565	109.01	-685.99	969.07	70.409	-845.62	49.403	142.24	-545.32	1045	367.44	-480.42	658.3	201.3	-784.42	78.597	184.2	-534.34	690.67	252.56	-664.28	258.68	188.34	-696.04	173.43	130.88	-657.36	249.45	127.29	-619.37	827.01	-262.71	-607.65	320.09	123.48	-766.57	83.712	98.25	-312.69	79.345	-26.847	-651.69	1069.7	33.689	-444.55	821.01	325.82	-367.46	22.329	-66.139	-631.24	1037.7	-133.41
271	1.355	-379.78	1557.5	1.3616	-369.26	1557.8	99.273	-435.3	926.62	222.91	-494.01	1349.8	231.95	-511.31	1206.1	320.82	-462.83	923.74	364.02	-461.21	820.45	396.81	-422.84	768.05	371.6	-496.9	1346.6	-127.16	-541.43	1205.5	-205.25	-628.63	1078.4	-235.4	-672.46	843.44	-307.91	-509.58	602.21	216.39	-671.74	25.466	191.44	-400.62	551.74	-145.62	-393.94	483.6	-126.27	-325.76	343.44	-29.854	-183.75	66.148	-34.86	-316.82	258.8	-39.849	-201.67	46.229	-116.62	-611.57	442.31	204.57	-322.25	264.5	-101.32	-422.84	1316.1	53.921	-300.31	174.94	-47.11	-147.34	77.043	-37.119	-364.22	1195.5	65.36	-613.72	948.68	-278.32	-382.7	656.12	-151.7	-431.53	629.28	-176.15	-323.5	72.122	-109.94	-538.72	1547.9	124.75	-587.51	532.7	218.27	-424.15	943.91	-131.59	-460.16	705.19	-202	-659.36	35.535	100.07	-636.75	1290.8	159.84	-592.2	1026.3	291.17	-583.41	1396.8	67.376	-664.14	969.73	-64.789	-647.97	788.55	-315.86	-532.76	1536.1	-10.839	-611.9	29.497	109.06	-680.96	968.55	69.132	-845.16	51.507	142.46	-541.52	1045	366.05	-476.57	657.25	203.3	-783.67	79.941	184.51	-529.49	690.31	251.98	-661.81	258.95	188.5	-694.33	173.9	131.18	-654.87	249.53	127.43	-615.74	825.74	-263.21	-604.49	319.71	123.54	-765.74	84.971	98.554	-311.1	78.03	-25.764	-646.74	1069.1	32.434	-441.04	820.89	324.86	-366.53	22.568	-65.71	-626.48	1036.8	-134.48
272	1.36	-375.11	1557.3	-0.37361	-364.7	1557.6	97.544	-430.19	926.08	221.9	-489.47	1349.7	230.14	-507.22	1206.2	319.17	-459.28	923.74	362.89	-457.89	820.49	395.79	-419.53	768.04	370.73	-491.87	1345.6	-129.05	-536.47	1204.3	-206.77	-623.9	1077.3	-236.6	-668.65	842.33	-308.42	-504.88	601.88	215.97	-671.74	25.366	191.47	-392.54	552.24	-144.32	-387.5	483.62	-125.78	-321.58	342.45	-28.992	-182.33	62.899	-33.04	-313.37	257.73	-38.944	-200.02	43.808	-115.27	-607.2	442.1	204.45	-318.29	263.48	-100.45	-417.98	1315.7	52.112	-297.62	173.71	-46.055	-145.46	72.759	-34.855	-359.31	1195	63.732	-609.49	947.42	-279.24	-375.4	656.72	-150.94	-423.87	629.4	-175.58	-321.6	71.426	-109.15	-534.18	1547.5	122.88	-582.83	532.37	217.97	-418.82	943.18	-132.49	-453.04	705	-201.86	-659.19	35.68	100.26	-632.15	1290.6	157.91	-588.29	1026.4	289.68	-578.69	1396.4	65.247	-658.94	969.12	-66.14	-644.42	787.31	-316.24	-528.07	1535.8	-12.729	-611.83	29.431	109.1	-675.93	968.06	67.845	-844.62	53.78	142.7	-537.78	1045.2	364.61	-473.12	656.02	205.46	-782.83	81.395	184.84	-524.56	690	251.4	-659.23	259.29	188.68	-692.53	174.45	131.51	-652.27	249.68	127.59	-611.99	824.47	-263.71	-601.2	319.37	123.63	-764.81	86.333	98.89	-309.62	76.817	-24.804	-641.78	1068.7	31.185	-437.61	820.8	323.87	-365.71	22.915	-65.382	-621.68	1035.9	-135.58
273	1.365	-370.44	1557.2	-2.1314	-360.15	1557.4	95.791	-425.06	925.6	220.85	-484.91	1349.6	228.33	-503.17	1206.2	317.47	-455.8	923.77	361.74	-454.67	820.58	394.73	-416.33	768.06	369.84	-486.82	1344.6	-130.97	-531.47	1203.1	-208.31	-619.1	1076.2	-237.82	-664.72	841.23	-308.95	-500.07	601.62	215.54	-671.75	25.257	191.5	-384.66	552.8	-143.01	-381.24	483.71	-125.36	-317.46	341.55	-28.198	-181.02	59.71	-31.398	-309.97	256.76	-38.126	-198.52	41.486	-114.14	-602.69	441.95	204.34	-314.38	262.57	-99.664	-413.12	1315.3	50.272	-295.02	172.59	-45.117	-143.7	68.494	-32.797	-354.39	1194.6	62.064	-605.16	946.18	-280.16	-368.09	657.32	-150.14	-416.22	629.64	-175	-319.81	70.836	-108.49	-529.64	1547.2	120.98	-578.03	532.09	217.67	-413.52	942.52	-133.43	-445.77	704.99	-201.69	-658.99	35.831	100.47	-627.54	1290.5	155.96	-584.42	1026.5	288.13	-573.94	1396.2	63.086	-653.73	968.56	-67.502	-640.73	786.09	-316.63	-523.37	1535.5	-14.648	-611.76	29.369	109.13	-670.91	967.59	66.552	-843.98	56.236	142.95	-534.1	1045.4	363.12	-470.04	654.61	207.72	-781.9	82.965	185.2	-519.55	689.75	250.83	-656.52	259.72	188.89	-690.62	175.08	131.87	-649.54	249.87	127.79	-608.14	823.22	-264.21	-597.76	319.08	123.76	-763.77	87.805	99.259	-308.23	75.723	-23.967	-636.82	1068.3	29.947	-434.28	820.75	322.85	-364.99	23.349	-65.144	-616.82	1035	-136.71
274	1.37	-365.75	1557.1	-3.9096	-355.59	1557.3	94.015	-419.92	925.19	219.75	-480.33	1349.6	226.51	-499.16	1206.3	315.74	-452.41	923.85	360.57	-451.57	820.7	393.64	-413.24	768.13	368.92	-481.75	1343.7	-132.91	-526.43	1202	-209.87	-614.24	1075.1	-239.06	-660.66	840.15	-309.48	-495.15	601.42	215.12	-671.77	25.139	191.52	-377	553.42	-141.73	-375.15	483.87	-125.02	-313.41	340.76	-27.485	-179.81	56.624	-29.943	-306.63	255.9	-37.402	-197.15	39.291	-113.22	-598.04	441.84	204.25	-310.52	261.78	-98.955	-408.24	1315	48.405	-292.49	171.58	-44.297	-142.07	64.307	-30.958	-349.46	1194.3	60.356	-600.74	944.95	-281.1	-360.81	657.94	-149.31	-408.63	630	-174.42	-318.13	70.347	-107.94	-525.09	1546.9	119.06	-573.12	531.87	217.38	-408.24	941.95	-134.44	-438.37	705.17	-201.51	-658.76	35.987	100.69	-622.93	1290.5	154	-580.58	1026.7	286.52	-569.15	1396	60.902	-648.52	968.07	-68.868	-636.9	784.89	-317.03	-518.66	1535.3	-16.592	-611.7	29.309	109.15	-665.91	967.17	65.257	-843.23	58.886	143.21	-530.47	1045.6	361.59	-467.31	653.04	210.06	-780.87	84.658	185.59	-514.47	689.56	250.26	-653.68	260.23	189.13	-688.58	175.81	132.25	-646.67	250.13	128.02	-604.16	821.99	-264.7	-594.18	318.84	123.93	-762.61	89.394	99.665	-306.92	74.758	-23.251	-631.87	1068.1	28.72	-431.04	820.73	321.81	-364.35	23.843	-64.986	-611.92	1034.1	-137.87
275	1.375	-361.06	1557.1	-5.7061	-351.02	1557.2	92.216	-414.77	924.85	218.6	-475.72	1349.6	224.69	-495.18	1206.4	313.99	-449.09	923.97	359.37	-448.57	820.86	392.51	-410.27	768.23	367.99	-476.66	1342.8	-134.86	-521.34	1200.9	-211.44	-609.29	1074.1	-240.32	-656.47	839.09	-310.04	-490.09	601.29	214.7	-671.8	25.014	191.54	-369.62	554.09	-140.54	-369.23	484.11	-124.78	-309.41	340.08	-26.865	-178.71	53.681	-28.677	-303.36	255.15	-36.776	-195.92	37.251	-112.53	-593.24	441.8	204.2	-306.73	261.09	-98.333	-403.36	1314.8	46.517	-290.04	170.69	-43.594	-140.56	60.254	-29.341	-344.53	1194	58.609	-596.21	943.76	-282.04	-353.6	658.56	-148.46	-401.13	630.49	-173.85	-316.57	69.952	-107.5	-520.53	1546.7	117.11	-568.07	531.7	217.09	-402.99	941.46	-135.5	-430.87	705.55	-201.32	-658.52	36.147	100.92	-618.31	1290.6	152.03	-576.78	1027	284.85	-564.33	1395.9	58.703	-643.31	967.64	-70.231	-632.93	783.72	-317.44	-513.94	1535.2	-18.559	-611.66	29.253	109.16	-660.92	966.8	63.965	-842.36	61.74	143.49	-526.89	1045.9	360.02	-464.9	651.34	212.44	-779.72	86.478	186	-509.31	689.44	249.69	-650.69	260.82	189.41	-686.41	176.64	132.67	-643.65	250.46	128.28	-600.06	820.8	-265.2	-590.43	318.66	124.14	-761.32	91.106	100.11	-305.71	73.924	-22.649	-626.92	1067.9	27.507	-427.9	820.75	320.74	-363.77	24.372	-64.898	-606.96	1033.2	-139.04
